<svg width="1600" height="980" viewBox="0 0 1600 980" fill="none" xmlns="http://www.w3.org/2000/svg">
  <rect width="1600" height="980" rx="48" fill="#EDEAE2"/>
  <path d="M0 690C152 620 309 618 471 658C598 690 730 744 879 732C1019 721 1138 649 1274 636C1397 624 1509 666 1600 724V980H0V690Z" fill="#D9E2D7"/>
  <path d="M0 760C126 724 260 719 402 756C547 795 657 842 816 830C972 818 1090 740 1243 730C1384 720 1489 752 1600 804V980H0V760Z" fill="#C8D4D6"/>
  <rect x="270" y="484" width="1060" height="240" rx="18" fill="#C99163"/>
  <rect x="238" y="444" width="1124" height="66" rx="20" fill="#B1784B"/>
  <rect x="210" y="714" width="1180" height="42" rx="18" fill="#8C5D39"/>
  <rect x="360" y="395" width="880" height="62" rx="18" fill="#E1B98A"/>
  <path d="M799.5 200L948 322H651L799.5 200Z" fill="#B1784B"/>
  <rect x="678" y="322" width="244" height="72" rx="18" fill="#D6A779"/>
  <path d="M716 322H884V252C884 205.072 845.928 167 799 167C752.072 167 714 205.072 714 252V322H716Z" fill="#C99163"/>
  <circle cx="799" cy="253" r="29" fill="#8C5D39"/>
  <rect x="712" y="248" width="174" height="18" rx="9" fill="#A96D42"/>
  <g fill="#9E6A41">
    <rect x="320" y="510" width="34" height="182" rx="12"/>
    <rect x="393" y="510" width="34" height="182" rx="12"/>
    <rect x="466" y="510" width="34" height="182" rx="12"/>
    <rect x="539" y="510" width="34" height="182" rx="12"/>
    <rect x="612" y="510" width="34" height="182" rx="12"/>
    <rect x="685" y="510" width="34" height="182" rx="12"/>
    <rect x="758" y="510" width="34" height="182" rx="12"/>
    <rect x="831" y="510" width="34" height="182" rx="12"/>
    <rect x="904" y="510" width="34" height="182" rx="12"/>
    <rect x="977" y="510" width="34" height="182" rx="12"/>
    <rect x="1050" y="510" width="34" height="182" rx="12"/>
    <rect x="1123" y="510" width="34" height="182" rx="12"/>
    <rect x="1196" y="510" width="34" height="182" rx="12"/>
  </g>
  <rect x="300" y="462" width="1000" height="20" rx="10" fill="#8C5D39"/>
  <path d="M470 462H1130C1122 440 1104 423 1082 418H518C496 423 478 440 470 462Z" fill="#D6A779"/>
  <path d="M570 418H1030L991 378H609L570 418Z" fill="#B1784B"/>
  <circle cx="365" cy="294" r="62" fill="#E1B98A"/>
  <circle cx="1238" cy="235" r="46" fill="#D6A779"/>
  <path d="M1220 191C1220 191 1273 162 1307 212" stroke="#C99163" stroke-width="18" stroke-linecap="round"/>
  <path d="M246 824H1354" stroke="#8C5D39" stroke-width="10" stroke-linecap="round"/>
</svg>
