<svg width="900" height="700" viewBox="0 0 900 700" fill="none" xmlns="http://www.w3.org/2000/svg">
  <rect width="900" height="700" rx="36" fill="#F2EFE8"/>
  <rect x="140" y="116" width="620" height="468" rx="36" fill="#FFFFFF"/>
  <path d="M400 162L438 194L468 189L510 224L542 257L530 291L560 326L543 372L572 418L538 453L504 466L476 510L425 525L380 495L342 500L312 466L263 455L243 411L264 375L254 337L285 307L308 266L348 245L363 208L400 162Z" fill="#C48F61"/>
  <path d="M400 162L438 194L468 189L510 224L542 257L530 291L560 326L543 372L572 418L538 453L504 466L476 510L425 525L380 495L342 500L312 466L263 455L243 411L264 375L254 337L285 307L308 266L348 245L363 208L400 162Z" stroke="#8C5D39" stroke-width="10" stroke-linejoin="round"/>
  <circle cx="634" cy="236" r="42" fill="#E8EBEF"/>
  <path d="M209 534H690" stroke="#D6DDD8" stroke-width="18" stroke-linecap="round"/>
</svg>
